<svg xmlns="http://www.w3.org/2000/svg" viewBox="0 0 227.49 29.84"><defs><style>.cls-1{fill:#29abe2;}</style></defs><title>Asset 3</title><g id="Layer_2" data-name="Layer 2"><g id="Layer_1-2" data-name="Layer 1"><path class="cls-1" d="M30.48,25.84a7.15,7.15,0,0,1-4.88-1.72,6,6,0,0,1-2-4.71,8,8,0,0,1,2.29-5.9A7.78,7.78,0,0,1,31.7,11.2,7,7,0,0,1,36.76,13a5.91,5.91,0,0,1,1.88,4.46,7.94,7.94,0,0,1-2.41,6.16A8.25,8.25,0,0,1,30.48,25.84Zm.22-3.38c1,0,1.61-.71,1.95-2.14a15.6,15.6,0,0,0,.52-3.59c0-1.47-.53-2.2-1.59-2.2s-1.6.73-2,2.19a15.24,15.24,0,0,0-.55,3.58C29.07,21.74,29.61,22.46,30.7,22.46Z"/><path class="cls-1" d="M39.15,11.55h4.62l-.55,3.34c1-2.5,2.44-3.76,4.42-3.76a5.19,5.19,0,0,1,.65.07l-.62,4.95-1,0a3.46,3.46,0,0,0-2.52.8,5.28,5.28,0,0,0-1.15,2.85l-.94,5.67H36.82Z"/><path class="cls-1" d="M53.48,6.67,50.34,25.43H45.06L48.2,6.67Z"/><path class="cls-1" d="M100,11.55,97.7,25.43h-5l.46-2.61a5.1,5.1,0,0,1-4.62,3,3.87,3.87,0,0,1-2.79-1,3.17,3.17,0,0,1-1-2.38A16.25,16.25,0,0,1,85,20.23l1.45-8.68h5.32l-1.33,7.94a13.12,13.12,0,0,0-.18,1.36c0,.69.32,1,1,1,1.2,0,2-1.15,2.38-3.46l1.15-6.87Z"/><path class="cls-1" d="M147,11.55l-2.33,13.88h-5l.46-2.61a5.1,5.1,0,0,1-4.62,3,3.87,3.87,0,0,1-2.79-1,3.17,3.17,0,0,1-1-2.38,16.25,16.25,0,0,1,.27-2.23l1.45-8.68h5.32l-1.33,7.94a13.12,13.12,0,0,0-.18,1.36c0,.69.32,1,1,1,1.2,0,2-1.15,2.38-3.46l1.15-6.87Z"/><path class="cls-1" d="M147.32,11.55h4.94l-.37,2.22a5.37,5.37,0,0,1,1.89-2.12,4.5,4.5,0,0,1,5.48,1.11,6.66,6.66,0,0,1,1.31,4.33,10.47,10.47,0,0,1-1.8,6A5.52,5.52,0,0,1,154,25.75a3.77,3.77,0,0,1-3.47-2l-1,6.05h-5.28Zm4.43,5a32.28,32.28,0,0,0-.59,4.18,1.85,1.85,0,0,0,.37,1.2,1.29,1.29,0,0,0,1.07.47,1.5,1.5,0,0,0,1.29-.69,6.9,6.9,0,0,0,.84-2.42,14.88,14.88,0,0,0,.35-2.58c0-1.37-.5-2-1.51-2S152.09,15.28,151.75,16.54Z"/><path class="cls-1" d="M161.11,11.55h4.95l-.38,2.22a5.46,5.46,0,0,1,1.9-2.12,4.19,4.19,0,0,1,2-.49,4.24,4.24,0,0,1,3.46,1.6,6.66,6.66,0,0,1,1.3,4.33,10.47,10.47,0,0,1-1.8,6,5.52,5.52,0,0,1-4.77,2.68,3.75,3.75,0,0,1-3.46-2l-1,6.05h-5.28Zm4.44,5a31.17,31.17,0,0,0-.6,4.18,1.85,1.85,0,0,0,.38,1.2,1.27,1.27,0,0,0,1.06.47,1.5,1.5,0,0,0,1.29-.69,6.9,6.9,0,0,0,.84-2.42,14.17,14.17,0,0,0,.36-2.58c0-1.37-.51-2-1.51-2S165.89,15.28,165.55,16.54Z"/><path class="cls-1" d="M179.8,25.84a7.15,7.15,0,0,1-4.88-1.72,6,6,0,0,1-2-4.71,8,8,0,0,1,2.29-5.9A7.78,7.78,0,0,1,181,11.2,7,7,0,0,1,186.08,13,5.94,5.94,0,0,1,188,17.47a7.94,7.94,0,0,1-2.41,6.16A8.25,8.25,0,0,1,179.8,25.84Zm.21-3.38c1,0,1.62-.71,2-2.14a15.6,15.6,0,0,0,.52-3.59c0-1.47-.53-2.2-1.6-2.2s-1.59.73-1.95,2.19a15.24,15.24,0,0,0-.55,3.58Q178.39,22.46,180,22.46Z"/><path class="cls-1" d="M188.47,11.55h4.62l-.55,3.34c1-2.5,2.44-3.76,4.42-3.76a5.19,5.19,0,0,1,.65.07L197,16.15l-1,0a3.46,3.46,0,0,0-2.52.8,5.28,5.28,0,0,0-1.15,2.85l-.94,5.67h-5.29Z"/><path class="cls-1" d="M205.38,11.55l-.61,3.54h-2.51L201.43,20a8,8,0,0,0-.12.92q0,1,1.29,1a6.19,6.19,0,0,0,1.31-.17l-.61,3.62a13.66,13.66,0,0,1-2.84.32,5.69,5.69,0,0,1-2.51-.43,3.44,3.44,0,0,1-1.33-1.21,3.64,3.64,0,0,1-.52-2.06,14,14,0,0,1,.25-2l.82-4.95h-1.91l.59-3.54h1.92l.76-4.11,5-.1-.71,4.21Z"/><path class="cls-1" d="M217.74,19.5h-9.56a6.88,6.88,0,0,0-.07.85,1.78,1.78,0,0,0,.58,1.42,2.16,2.16,0,0,0,1.48.51,2.45,2.45,0,0,0,2.39-1.76l4.67.76a7.33,7.33,0,0,1-2.93,3.3,8.35,8.35,0,0,1-4.5,1.26,7.22,7.22,0,0,1-5-1.76,6.21,6.21,0,0,1-1.93-4.82,7.95,7.95,0,0,1,8.25-8.06,6.73,6.73,0,0,1,5,1.84,6.61,6.61,0,0,1,1.84,4.89A9.58,9.58,0,0,1,217.74,19.5Zm-5-2.66a4.1,4.1,0,0,0,.07-.66,2,2,0,0,0-.46-1.29,1.59,1.59,0,0,0-1.29-.55,2.28,2.28,0,0,0-1.59.66,3,3,0,0,0-.88,1.84Z"/><path class="cls-1" d="M28.13,1.69,23,13.44,22,4l-2.46,9.33s.9-9.28,2.41-9.81L21.8,1.69H15l-5,11.75L8.66,1.69H0L3.9,25h6.33l5.5-13.36L17,25h6.58L34.3,1.69Z"/><path class="cls-1" d="M81.41,20.15a3,3,0,0,1-2.29.94c-1.92,0-2.87-1.22-2.87-3.67a27.49,27.49,0,0,1,1-6.2c.58-2.38,1.64-3.67,3.16-3.89,1-.46,4.28-2,7.27-3.07a9.18,9.18,0,0,0-6.57-2.4,10.72,10.72,0,0,0-9,4.26,15.63,15.63,0,0,0-3.27,9.79,11.51,11.51,0,0,0,2.65,7.85,9,9,0,0,0,7.15,3.06,9.78,9.78,0,0,0,6.87-2.51,13.65,13.65,0,0,0,3.84-6.42l-6.41-.82A7.93,7.93,0,0,1,81.41,20.15Z"/><path class="cls-1" d="M80.6,7.31a1.9,1.9,0,0,1,.25,0A2.33,2.33,0,0,1,83,8.37a6.76,6.76,0,0,1,.68,3.29l6.74-.49A9.45,9.45,0,0,0,88.3,4.93Z"/><path class="cls-1" d="M107.56,19.94a5.58,5.58,0,0,1-.68,1.76,1.5,1.5,0,0,1-1.29.69,1.26,1.26,0,0,1-1.06-.47,1.8,1.8,0,0,1-.38-1.2,31.17,31.17,0,0,1,.6-4.18c.33-1.26.94-1.89,1.81-1.89s1.51.68,1.51,2a14.88,14.88,0,0,1-.35,2.58l-.06.23c1.73-.76,4-1.69,5.89-2.31,0,0,0-.08,0-.11a6.66,6.66,0,0,0-1.31-4.33,4.5,4.5,0,0,0-5.48-1.11,5.37,5.37,0,0,0-1.89,2.12l.37-2.22h-4.94L97.24,29.84h5.28l1-6.05a3.77,3.77,0,0,0,3.47,2,5.52,5.52,0,0,0,4.77-2.68,10.36,10.36,0,0,0,1.75-5Z"/><path class="cls-1" d="M61.69,23.77s2.09-4.18,4-7.44l1.61-9.66H62l-1.08,6.47a3.35,3.35,0,0,0-3.39-2,5.65,5.65,0,0,0-4.83,2.76,10.73,10.73,0,0,0-1.88,6.19,6.06,6.06,0,0,0,1.36,4.25,4.22,4.22,0,0,0,3.24,1.48,4.92,4.92,0,0,0,4.12-2.51l-.34,2.1h4.94l1.31-7.89Zm-1.34-7.29-.63,3.92c-.33,1.26-1,1.9-1.95,1.9s-1.47-.64-1.47-1.9a13.87,13.87,0,0,1,.62-3.62c.42-1.46,1.1-2.18,2-2.18A1.42,1.42,0,0,1,60.39,16,2.35,2.35,0,0,1,60.35,16.48Z"/><path class="cls-1" d="M222.75,17.94a3.2,3.2,0,0,1,.65-1,3.45,3.45,0,0,1,2.52-.8h.29c.26-.12.49-.22.7-.3l.58-4.62a5.19,5.19,0,0,0-.65-.07c-2,0-3.46,1.26-4.42,3.76l.55-3.34h-4.62l-1.68,10C217.48,21.06,220.18,19.4,222.75,17.94Z"/><path class="cls-1" d="M216.67,21.59,216,25.43h5.29l.94-5.67a10.76,10.76,0,0,1,.28-1.23Z"/><path class="cls-1" d="M134.49,12.42a10.24,10.24,0,0,0-3-1.68l-4.11-1.47a6,6,0,0,1-2-1,1.39,1.39,0,0,1-.36-.95c0-1.14.86-1.71,2.56-1.71a4.87,4.87,0,0,1,2.5.66,2.88,2.88,0,0,1,1.43,1.83l6.65-1.69a8.24,8.24,0,0,0-3.87-4.7L134,1.57,120.59,6s8.17-4,12.3-5a14.51,14.51,0,0,0-5.64-1q-5.37,0-8,2.45a8,8,0,0,0-2.6,6,6.49,6.49,0,0,0,1,3.56A6.38,6.38,0,0,0,120,14.3a45.67,45.67,0,0,0,5,2.08c1.76.65,2.74,1,2.95,1.13a1.87,1.87,0,0,1,.59.52,1.36,1.36,0,0,1,.27.84,1.64,1.64,0,0,1-.71,1.31,3.61,3.61,0,0,1-2.3.58c-2.54,0-4.14-.91-4.78-2.75l-7.47,1.46a9.56,9.56,0,0,0,4.56,5.44,15.78,15.78,0,0,0,7.67,1.79A12.51,12.51,0,0,0,134,24.14a8.09,8.09,0,0,0,3.08-6.48,6.52,6.52,0,0,0-.61-2.81A6.77,6.77,0,0,0,134.49,12.42Z"/></g></g></svg>