<svg xmlns="http://www.w3.org/2000/svg" viewBox="0 0 108.28 104.4"><defs><style>.cls-1,.cls-2{fill:#29abe2;}.cls-1,.cls-2,.cls-3{stroke:#fff;stroke-miterlimit:10;}.cls-2{stroke-width:0.5px;}.cls-3{fill:none;}</style></defs><title>Asset 1</title><g id="Layer_2" data-name="Layer 2"><g id="Layer_1-2" data-name="Layer 1"><path class="cls-1" d="M88.65,62.17h-46v36.9H.5V.5h102V24H42.67V40h46Z"/><path class="cls-1" d="M25.3,84.33,51.49,81q3.3,7.75,17,7.76,10.64,0,10.63-4c0-1.38-.81-2.46-2.45-3.23a34.86,34.86,0,0,0-8.79-2q-24.18-3.24-31-8.46T29.94,58.84q0-9.09,9.87-15.11t28.38-6q28.07,0,37.1,15.77L81.92,58.41Q78.29,52,67.18,52,58,52,58,56A3.07,3.07,0,0,0,60,58.74a33.72,33.72,0,0,0,8.08,1.87,233,233,0,0,1,23.44,4.32,25.89,25.89,0,0,1,11.58,6.42,14.49,14.49,0,0,1,4.64,10.71q0,9.73-11.31,15.79t-29.7,6.05Q33.17,103.9,25.3,84.33Z"/><g id="Layer_2-2" data-name="Layer 2"><g id="Layer_1-2-2" data-name="Layer 1-2"><path class="cls-2" d="M58.66,57.22l0-.47-.06-.52c0-.23-.08-.46-.13-.69a8.71,8.71,0,0,0-.55-1.73A9.05,9.05,0,0,0,57,52.25c-.08-.13-.17-.26-.26-.38a.09.09,0,0,0,0-.06l0,0a11.57,11.57,0,0,0-.8-.93,9.32,9.32,0,0,0-1.35-1.15,9.7,9.7,0,0,0-3.2-1.47A10.78,10.78,0,0,0,49.59,48H49a10.83,10.83,0,0,0-1.27.08c-.29,0-.59.09-.88.16s-.58.15-.86.24a9.68,9.68,0,0,0-6.14,6.17c-.09.29-.17.59-.24.89,0,0,0,.07,0,.1v0a1.74,1.74,0,0,0,0,.22l0,0,0,0c0,.18-.06.35-.08.53a9.06,9.06,0,0,0-.07.91c0,.3,0,.6,0,.9a9.65,9.65,0,0,0,3,6.38c.23.21.46.41.71.61h0l0,0s0,.07,0,.08h0a.07.07,0,0,0,.06,0h0c.19.15.38.29.58.42s.52.31.78.46.55.26.83.38a9.71,9.71,0,0,0,3.49.71,10.09,10.09,0,0,0,1.82-.15,9,9,0,0,0,1.74-.48,9.85,9.85,0,0,0,1.6-.78,10.49,10.49,0,0,0,1.42-1.06,9.56,9.56,0,0,0,3.14-6.2,9.08,9.08,0,0,0,.05-.91C58.66,57.51,58.66,57.37,58.66,57.22Zm-2.23-5.4h0a1.84,1.84,0,0,0-.17-.22A1.84,1.84,0,0,1,56.43,51.82Zm-.68.12-.08.05v0a.83.83,0,0,0,0-.15Zm-.2-.47,0,0h0Zm-2.91-1.91h0Zm0,0Zm.07.16h.13l0,0,.08.05.08,0,.11.07.09.06.17.1.19.11.1.06.09.06.17.12.17.12.19.14.17.12.34.24.12.09.31.28a1.21,1.21,0,0,1,.16.16l.05.06h0a.94.94,0,0,0,0,.16c0,.11.05.23.07.34s.09.44.12.66h0a10.87,10.87,0,0,1,.07,1.71,6.51,6.51,0,0,1-.07.76l-.1,0-.1,0-.2.06-.19.06-.2.05-.41.13-.13,0-.1,0-.21.08-.19.07-.18.06-.21.07-.21.06-.25.07-.21.07-.42.14-.11,0v0a0,0,0,0,0,0-.06h0s0,0,0,0a.08.08,0,0,0,0,0v0a.08.08,0,0,1,0,0v.12h0l-.27-.29a6.2,6.2,0,0,0-.45-.44c-.17-.16-.34-.31-.52-.45l-.14-.11a8.43,8.43,0,0,0-.78-.55q-.39-.24-.81-.45l-.34-.16h0a.11.11,0,0,0,0-.08.13.13,0,0,0,0-.06v-.29l0-.43,0-.19,0-.2,0-.1a.45.45,0,0,0,0-.11c0-.09,0-.18,0-.27s0-.28,0-.43l0-.45a.61.61,0,0,0,0-.14.08.08,0,0,1,0,0l0-.34c0-.06,0-.11,0-.16l0-.06,0-.14c0-.05,0-.11,0-.16a.06.06,0,0,0,0-.07l.16-.06a3.81,3.81,0,0,1,.44-.15,8.75,8.75,0,0,1,.88-.23l.7-.13c.29,0,.58-.06.88-.07h.66Zm4.47,9.19Zm-1.42-3.19v0a.06.06,0,0,1,0,0Zm-.9,6.65h0Zm-4.66,4.37h0Zm-2.74-1.23a0,0,0,0,0,0,0s0,0,0,0a.1.1,0,0,0,0-.05l-.06,0h-.09v-.06l0-.2c0-.06,0-.13,0-.2s.06-.27.08-.41l.09-.43c0-.13.08-.27.13-.41l.13-.4.06-.21a1.55,1.55,0,0,0,0-.21s0-.06,0-.09l0,0h0a.08.08,0,0,0,.08-.08.09.09,0,0,0,0-.06l-.1-.07-.07,0h0l-.09-.05c.3,0,.6-.11.9-.18s.68-.19,1-.31a10.57,10.57,0,0,0,1-.43,9.78,9.78,0,0,0,1.17-.7.43.43,0,0,1,0,.05s0,0,0,0h0s0,0,0,0,0,0,0-.06h0l.12,0,.18.08.22.1.08,0h0l.33.15.1,0,.07,0,.21.12.39.24.09.06.07,0,.17.12.08.06L54,62l.17.15.18.13.09.06.09,0h0v.1c0,.06,0,.11,0,.17a1.49,1.49,0,0,1,0,.21.37.37,0,0,1,0,.11v.11a.8.8,0,0,1,0,.15l0,.17c0,.11-.05.22-.07.33l-.06.29,0,.17s0,.11,0,.17l-.09.28c0,.11-.06.22-.1.33v0a8.53,8.53,0,0,1-1.28.74l-.41.19h0a10.2,10.2,0,0,1-2,.59h0l-.26,0s0,0,0,0a9.35,9.35,0,0,1-2.57-1.15,0,0,0,0,0,0,0Zm-5.58-4Zm.14-.12h0Zm1.92-6.67h0Zm0,0ZM43,53.53h0l0,0,0,0h0Zm1.88,1.67h0Zm3.51-4.78,0,0h0ZM45.15,50l0,0Zm-2.39,3.12,0,0Zm2,2.61,0,0h0a.08.08,0,0,0,.07-.08s0,0,0,0,0,0,0,0l0,0,.09-.06.08,0,.31-.2.34-.23h0L46,55l.61-.28.46-.2.22-.1.1,0,.24-.11h0l.13-.05.27-.08.29-.07.22,0,.06,0a9.89,9.89,0,0,1,1.63.89,5.6,5.6,0,0,1,.49.36l.11.08c.19.16.38.32.56.49l.26.25h0c.13.14.27.28.39.43l.1.11v.58c0,.11,0,.21,0,.31v.09s0,.08,0,.13l0,.16-.06.32,0,.16,0,.17,0,.17a1.23,1.23,0,0,0,0,.19,2.91,2.91,0,0,0,0,.31l0,.3,0,.33c0,.11,0,.22,0,.33s0,.09,0,.14,0,.06,0,.09v.14h0l-.06,0h0a.1.1,0,0,0-.07,0v0h0l-.17.11-.35.22-.06,0a8.31,8.31,0,0,1-.94.48l-.06,0a8.93,8.93,0,0,1-2,.6,2.76,2.76,0,0,1-.4.06h-.08l-.17-.09L47,62l-.3-.18-.34-.21a.71.71,0,0,1-.14-.1L46,61.4l-.5-.38c-.2-.15-.39-.3-.57-.46l-.15-.14-.14-.13-.13-.12L44.4,60a.12.12,0,0,0,0-.05l0,0h0v-.06a.11.11,0,0,0,0-.05h0v0a.86.86,0,0,1,0-.16v-.08a.49.49,0,0,0,0-.12,2,2,0,0,0,0-.25v-.08c0-.27,0-.53,0-.8s0-.47.07-.7.11-.64.18-1a8.89,8.89,0,0,1,.26-.88Zm7.07,4.94h0Zm0-.15h0Zm-7.49-.5Zm2.86,2.26h0Zm5.07-5.44v0h0v0Zm.14.14h0l0,0Zm-.59,9.35h-.13l.11,0h0Zm2.83-3.78V62.5s0,0,0-.06,0,0,0,0l0,.15ZM45.4,49a8.24,8.24,0,0,1,1.18-.41,10,10,0,0,1,1.21-.25,10.66,10.66,0,0,1,1.26-.08,9.51,9.51,0,0,1,2.49.33c.22.06.44.13.65.21v0a0,0,0,0,0,0,0v.06a.68.68,0,0,0,0,.14l0,.05a.06.06,0,0,0,0,0l.06.18,0,.09a.22.22,0,0,0,.05.08.44.44,0,0,0,.08.11H52c-.31,0-.62,0-.92.09a8.82,8.82,0,0,0-1.77.44,4.68,4.68,0,0,0-.48.18h-.07l0,0h0l-.15,0-.23,0h0l-.15,0L48,50.12l-.23,0-.21,0-.26,0L47,50l-.46,0-.44,0h-.42l-.16,0-.35,0h0s0-.09,0-.13a2.85,2.85,0,0,1,0-.29l0-.39L45.4,49Zm-5,5a9.53,9.53,0,0,1,.53-1.06,9.4,9.4,0,0,1,.68-1,10.77,10.77,0,0,1,.77-.88,10.06,10.06,0,0,1,.92-.81,11.41,11.41,0,0,1,1-.69c.24-.14.48-.26.72-.38l0,.36,0,.29s0,.08,0,.12a.06.06,0,0,0,0,.06v0h0l0,0,0,0-.07.06-.14.12-.26.27c-.16.18-.32.38-.48.58l-.23.3-.21.28-.23.3-.11.14-.12.18,0,0-.06.11-.06.08v0l-.11.19-.13.23a.06.06,0,0,0,0,.06l0,0h0l-.06-.08h0a0,0,0,0,0-.05,0v0l0,.06,0,0h-.09l-.08,0-.1.05-.17.11-.34.23a8.38,8.38,0,0,0-.66.52,8.24,8.24,0,0,0-.62.56l-.28.3-.13.15,0,.06A9.12,9.12,0,0,1,40.41,54Zm-.68,4.6,0-.31c0-.21,0-.43,0-.64a8.88,8.88,0,0,1,.08-1.26,9.32,9.32,0,0,1,.17-.92l.08-.1.14-.16.13-.15.28-.3.29-.28c.22-.2.44-.4.68-.58L42,53.5l.23-.15v0s0,0,0,0h0l0,0,0,0,0,0,.06,0,.1-.07.11-.07h0l.13.19.11.15c0,.06.09.12.13.19l.24.31.12.16.12.17.26.36.13.18L44,55,44,55c.09.12.18.22.28.33a1.7,1.7,0,0,0,.31.29l.09.08v0l-.15.47a9.71,9.71,0,0,0-.38,2.88v.28a.81.81,0,0,1,0,.16.25.25,0,0,0,0,.08v0s0,.05,0,.08v.1l-.11.08h0L43.9,60l-.16.13h0l-.13.09-.08.06-.08,0-.14.09-.16.11-.15.11-.06,0-.07,0-.09.06-.05,0-.16.1-.16.09-.16.09-.11,0v0h-.07l-.09.1,0,0,0,0-.06,0a0,0,0,0,0,0,0h0l0-.08,0,0h-.06l-.05,0,0,0a7.17,7.17,0,0,1-.52-.58l-.15-.19h0a9.18,9.18,0,0,1-1-1.6l0-.09,0,0a.89.89,0,0,0-.08-.17s0,0,0,0ZM43.29,65a8.82,8.82,0,0,1-.86-.76,9.94,9.94,0,0,1-.81-.91,10.64,10.64,0,0,1-.66-1,10.12,10.12,0,0,1-.55-1.09,9.94,9.94,0,0,1-.4-1.16,10.15,10.15,0,0,1-.25-1.22s0-.09,0-.13l0,.06h0a0,0,0,0,0,0,0,9.19,9.19,0,0,0,1,1.62l.21.27,0,0,0,0,.26.31.23.25,0,0,.08.09.06.06h0s0,0,0,0,0,0,0,.05a.14.14,0,0,0,0,.06l0,.09a1.12,1.12,0,0,1,0,.13c.05.11.09.22.14.32a.37.37,0,0,0,.05.11l.08.19,0,.1.09.19a.93.93,0,0,0,0,.1l.09.18.07.11.07.12.33.54c0,.1.11.19.17.29a2.33,2.33,0,0,0,.17.26c.05.07.1.14.14.21l.07.1,0,0,0,.05h0l-.08.09Zm5.76,2h0a10.16,10.16,0,0,1-1.23-.08,10,10,0,0,1-1.21-.25,9.49,9.49,0,0,1-1.17-.4,9.61,9.61,0,0,1-1.11-.56,9.16,9.16,0,0,1-.92-.61l0-.06s0,0,.05,0l.08-.09,0,0,.12.08.15.07.16.09.06,0,.12,0a.2.2,0,0,0,.08,0l.12,0,.06,0,.13.05.19,0,.07,0,.11,0,.2,0,.38.1h.1l.1,0,.2,0,.4,0H47a.06.06,0,0,0,.06-.06h0a0,0,0,0,0,0,0h0l0,0h.06a9.65,9.65,0,0,0,2.4,1.15l.52.14A9.14,9.14,0,0,1,49.05,66.94Zm4.35-1h0ZM58.09,60a9.49,9.49,0,0,1-.4,1.17,10.88,10.88,0,0,1-.54,1.08,8.89,8.89,0,0,1-.7,1,10.8,10.8,0,0,1-.78.89,11.57,11.57,0,0,1-.91.8l-.12.09-.09,0-.1,0-.13,0h0a.06.06,0,0,0,0-.07.07.07,0,0,0-.05,0h0v0l0-.07c0-.13.1-.26.14-.39l.15-.48.09-.36c0-.07,0-.14.05-.21.06-.3.11-.6.15-.91h0l0,0h0l0,0,.06,0a0,0,0,0,0,0,0h0l.12-.14.23-.31.19-.25h0l.12-.16h0l.12-.15h0l.12-.15h0L56,61h0l.44-.57.22-.3c.07-.08.13-.17.2-.26l.21-.27.21-.3.18-.24a0,0,0,0,1,0,0h.79s0,0,0,0h0A9.15,9.15,0,0,1,58.09,60Zm.32-2.17c0,.11,0,.22,0,.33s0,.43-.07.65v.09h0s0,0,0,0h-.92a.29.29,0,0,0,0-.09v0a0,0,0,0,0,0,0v0l0-.09-.06-.34a.29.29,0,0,0,0-.09s0-.06,0-.09l0-.09,0-.09a.94.94,0,0,0,0-.16L57,57.62,57,57.44s-.05-.11-.08-.17-.09-.21-.13-.31l-.08-.17-.05-.1,0-.06-.08-.15-.08-.13v0a1.09,1.09,0,0,0-.08-.15l0-.07a.21.21,0,0,1,0-.06l-.09-.14-.09-.14-.1-.14-.06-.07s0,0,0,0l-.07-.16,0,0,0,0h0l0-.24a8.11,8.11,0,0,0,.05-.86,10,10,0,0,0-.12-1.72l-.06-.31h0l.1,0a1.32,1.32,0,0,1,.33-.08l.28,0h.13a9.86,9.86,0,0,1,1.13,2,9.2,9.2,0,0,1,.4,1.15,8.5,8.5,0,0,1,.24,1.2,8.76,8.76,0,0,1,.09,1.25C58.42,57.65,58.42,57.76,58.41,57.86Z"/></g></g><line class="cls-3" x1="42.19" y1="49.68" x2="16.3" y2="49.68"/><line class="cls-3" x1="36.07" y1="58.7" x2="10.18" y2="58.7"/><line class="cls-3" x1="44.27" y1="66.94" x2="18.38" y2="66.94"/></g></g></svg>